ModelForces
version=1
nRows=4
nColumns=155
inDegrees=no

This file contains the forces exerted on a model during a simulation.

A force is a generalized force, meaning that it can be either a force (N) or a torque (Nm).

Units are S.I. units (second, meters, Newtons, ...)
Angles are in degrees.

endheader
time	glut_med1_r	glut_med2_r	glut_med3_r	glut_min1_r	glut_min2_r	glut_min3_r	semimem_r	semiten_r	bifemlh_r	bifemsh_r	sar_r	add_long_r	add_brev_r	add_mag1_r	add_mag2_r	add_mag3_r	tfl_r	pect_r	grac_r	glut_max1_r	glut_max2_r	glut_max3_r	iliacus_r	psoas_r	quad_fem_r	gem_r	peri_r	rect_fem_r	vas_med_r	vas_int_r	vas_lat_r	med_gas_r	lat_gas_r	soleus_r	tib_post_r	flex_dig_r	flex_hal_r	tib_ant_r	per_brev_r	per_long_r	per_tert_r	ext_dig_r	ext_hal_r	glut_med1_l	glut_med2_l	glut_med3_l	glut_min1_l	glut_min2_l	glut_min3_l	semimem_l	semiten_l	bifemlh_l	bifemsh_l	sar_l	add_long_l	add_brev_l	add_mag1_l	add_mag2_l	add_mag3_l	tfl_l	pect_l	grac_l	glut_max1_l	glut_max2_l	glut_max3_l	iliacus_l	psoas_l	quad_fem_l	gem_l	peri_l	rect_fem_l	vas_med_l	vas_int_l	vas_lat_l	med_gas_l	lat_gas_l	soleus_l	tib_post_l	flex_dig_l	flex_hal_l	tib_ant_l	per_brev_l	per_long_l	per_tert_l	ext_dig_l	ext_hal_l	ercspn_r	ercspn_l	intobl_r	intobl_l	extobl_r	extobl_l	femur_lat_meniscii_r.femur_lat_r.force.X	femur_lat_meniscii_r.femur_lat_r.force.Y	femur_lat_meniscii_r.femur_lat_r.force.Z	femur_lat_meniscii_r.femur_lat_r.torque.X	femur_lat_meniscii_r.femur_lat_r.torque.Y	femur_lat_meniscii_r.femur_lat_r.torque.Z	femur_lat_meniscii_r.meniscus_lat_r.force.X	femur_lat_meniscii_r.meniscus_lat_r.force.Y	femur_lat_meniscii_r.meniscus_lat_r.force.Z	femur_lat_meniscii_r.meniscus_lat_r.torque.X	femur_lat_meniscii_r.meniscus_lat_r.torque.Y	femur_lat_meniscii_r.meniscus_lat_r.torque.Z	femur_med_meniscii_r.femur_med_r.force.X	femur_med_meniscii_r.femur_med_r.force.Y	femur_med_meniscii_r.femur_med_r.force.Z	femur_med_meniscii_r.femur_med_r.torque.X	femur_med_meniscii_r.femur_med_r.torque.Y	femur_med_meniscii_r.femur_med_r.torque.Z	femur_med_meniscii_r.meniscus_med_r.force.X	femur_med_meniscii_r.meniscus_med_r.force.Y	femur_med_meniscii_r.meniscus_med_r.force.Z	femur_med_meniscii_r.meniscus_med_r.torque.X	femur_med_meniscii_r.meniscus_med_r.torque.Y	femur_med_meniscii_r.meniscus_med_r.torque.Z	femur_med_tibia_r.tibia_upper_r.force.X	femur_med_tibia_r.tibia_upper_r.force.Y	femur_med_tibia_r.tibia_upper_r.force.Z	femur_med_tibia_r.tibia_upper_r.torque.X	femur_med_tibia_r.tibia_upper_r.torque.Y	femur_med_tibia_r.tibia_upper_r.torque.Z	femur_med_tibia_r.femur_med_r.force.X	femur_med_tibia_r.femur_med_r.force.Y	femur_med_tibia_r.femur_med_r.force.Z	femur_med_tibia_r.femur_med_r.torque.X	femur_med_tibia_r.femur_med_r.torque.Y	femur_med_tibia_r.femur_med_r.torque.Z	femur_lat_tibia_r.tibia_upper_r.force.X	femur_lat_tibia_r.tibia_upper_r.force.Y	femur_lat_tibia_r.tibia_upper_r.force.Z	femur_lat_tibia_r.tibia_upper_r.torque.X	femur_lat_tibia_r.tibia_upper_r.torque.Y	femur_lat_tibia_r.tibia_upper_r.torque.Z	femur_lat_tibia_r.femur_lat_r.force.X	femur_lat_tibia_r.femur_lat_r.force.Y	femur_lat_tibia_r.femur_lat_r.force.Z	femur_lat_tibia_r.femur_lat_r.torque.X	femur_lat_tibia_r.femur_lat_r.torque.Y	femur_lat_tibia_r.femur_lat_r.torque.Z	aACL_R	pACL_R	aPCL_R	pPCL_R	aMCL_R	mMCL_R	pMCL_R	aLCL_R	mLCL_R	pLCL_R	aPCL_L	pPCL_L	aMCL_L	aLCL_L
      0.16393844	     11.45987514	      8.36691817	      8.99929908	      3.86271971	      4.48925556	      4.86089635	      0.00000000	    164.50167765	    147.39194541	    303.66295762	    129.34790022	      8.32745093	      5.99511522	      3.25321979	      3.64867483	      6.15139230	      5.05304992	      3.26050694	     98.88859275	      5.40245108	      8.21855441	      6.17636319	     27.58637765	     18.57390467	      5.31193346	      3.66246203	      6.24831462	     53.64850398	     31.12978892	     33.35972437	     45.18134951	      0.00000000	      0.00000000	      0.00000000	      0.00000000	      0.00000000	      0.00000000	     33.61664697	      2.30729772	      2.87434890	     30.81605836	     41.87566247	     10.76405496	     11.45987514	      8.36691817	      8.99929908	      3.86271971	      4.48925556	      4.86089635	      0.00000000	      6.20126995	     12.24184221	     10.57274762	      2.20395331	      8.32745093	      5.99511522	      3.25321979	      3.64867483	      6.15139230	      5.43552822	      3.26050694	      2.27528264	      5.40245108	      8.21855441	      6.17636319	     27.58637765	     18.57390467	      5.31193346	      3.66246203	      6.24831462	     17.05774728	      0.00000000	      0.00000000	      0.00000000	     21.18482796	     10.01057866	     50.90317525	     51.03411879	      5.46126321	      4.88692765	     13.27128799	      7.10033941	     18.21909104	      2.87176687	      8.85575519	      2.78165293	     36.35877794	     36.35877794	     13.51225073	     13.51225073	     30.87264385	     30.87264385	    119.36532898	    216.47006430	     25.22056548	    -15.32374748	      2.90662010	     46.69498883	   -119.36532898	   -216.47006430	    -25.22056548	      5.89303919	     -3.59330808	      3.83310057	     30.13408074	     27.24599837	     13.06269285	     -4.63866878	     -0.67738249	     12.07560024	    -30.13408074	    -27.24599837	    -13.06269285	     -0.36820801	      0.36740518	      0.12121648	   -723.40962635	   -682.19598364	    217.00647570	    -15.73380074	     16.39161517	     -0.83918421	    723.40962635	    682.19598364	   -217.00647570	    100.54748183	    -13.00662543	    294.21411485	      0.00000000	      0.00000000	      0.00000000	      0.00000000	      0.00000000	      0.00000000	      0.00000000	      0.00000000	      0.00000000	      0.00000000	      0.00000000	      0.00000000	      0.82952374	      0.00000000	    567.83825164	    367.98466543	      0.00000000	      0.00000000	      0.00000000	      0.00000000	      0.00000000	      0.00000000	      0.00000000	      0.00000000	      0.00000001	      0.00000000
      0.16411979	     11.45107780	      8.36046192	      8.99227182	      3.85986106	      4.48612730	      4.85690163	      0.00000000	    164.54047323	    147.38351149	    303.63949929	    129.35423590	      8.32095131	      5.99071975	      3.31480611	      3.64580839	      6.14619854	      5.04780667	      3.25807671	     98.89103212	      5.39826556	      8.21217286	      6.17149319	     27.57447807	     18.56033395	      5.30791679	      3.66049910	      6.24643109	     53.80204909	     31.12379536	     33.35309310	     45.17019512	      0.00000000	      0.00000000	      0.00000000	      0.00000000	      0.00000000	      0.00000000	     33.64565123	      2.30147341	      2.87384911	     23.08554823	     41.99459719	     10.79187093	     11.45107780	      8.36046192	      8.99227182	      3.85986106	      4.48612730	      4.85690163	      0.00000000	      6.19618269	     12.23203441	     10.56474369	      2.20232986	      8.32095131	      5.99071975	      3.31480611	      3.64580839	      6.14619854	      5.43232855	      3.25807671	      2.27357721	      5.39826556	      8.21217286	      6.17149319	     27.57447807	     18.56033395	      5.30791679	      3.66049910	      6.24643109	     17.04275581	      0.00000000	      0.00000000	      0.00000000	     21.18056575	     10.00792543	     50.86747101	     51.01513576	      5.45721098	      4.88326022	     13.26029091	      7.09410731	     18.20747338	      2.86967638	      8.84763725	      2.77921638	     36.33180986	     36.33180986	     13.50142397	     13.50142397	     30.86282660	     30.86282660	    119.46771793	    216.79793792	     25.54962422	    -15.46729160	      2.91075187	     46.72655150	   -119.46771793	   -216.79793792	    -25.54962422	      5.90957709	     -3.60533391	      3.85823535	     30.35097661	     27.22725842	     12.86599151	     -4.55880319	     -0.68233302	     12.16170071	    -30.35097661	    -27.22725842	    -12.86599151	     -0.37242116	      0.37558198	      0.12024930	   -724.88651614	   -681.47277826	    217.03477919	    -15.70934077	     16.41998356	     -0.82651776	    724.88651614	    681.47277826	   -217.03477919	    100.53981862	    -13.03041483	    294.79953265	      0.00000000	      0.00000000	      0.00000000	      0.00000000	      0.00000000	      0.00000000	      0.00000000	      0.00000000	      0.00000000	      0.00000000	      0.00000000	      0.00000000	      0.82167050	      0.00000000	    569.72224747	    368.95082933	      0.00000000	      0.00000000	      0.00000000	      0.00000000	      0.00000000	      0.00000000	      0.00000000	      0.00000000	      0.00000001	      0.00000000
      0.16440015	     11.43750050	      8.35051119	      8.98144111	      3.85545502	      4.48130583	      4.85074448	      0.00000000	    164.59709008	    147.37118414	    303.60717272	    129.36122360	      8.31093383	      5.98394495	      3.40111359	      3.64139049	      6.13819357	      5.03960968	      3.25433103	     98.89242436	      5.39181471	      8.20233740	      6.16398743	     27.55613862	     18.53941908	      5.30172599	      3.65747395	      6.24349255	     54.04103828	     31.11439295	     33.34351671	     45.15430679	      0.00000000	      0.00000000	      0.00000000	      0.00000000	      0.00000000	      0.00000000	     33.69058900	      2.29241572	      2.87298446	     23.77704115	     42.17738224	     10.83477826	     11.43750050	      8.35051119	      8.98144111	      3.85545502	      4.48130583	      4.85074448	      0.00000000	      6.18834204	     12.21689825	     10.55240745	      2.19982763	      8.31093383	      5.98394495	      3.40111359	      3.64139049	      6.13819357	      5.42739678	      3.25433103	      2.27094864	      5.39181471	      8.20233740	      6.16398743	     27.55613862	     18.53941908	      5.30172599	      3.65747395	      6.24349255	     17.01964601	      0.00000000	      0.00000000	      0.00000000	     21.17389588	     10.00378839	     50.81228664	     50.98585345	      5.45092668	      4.87756275	     13.24332992	      7.08449695	     18.18954193	      2.86645454	      8.83520059	      2.77549193	     36.29024399	     36.29024399	     13.48473742	     13.48473742	     30.84769657	     30.84769657	    119.47417338	    216.73459695	     25.92898214	    -15.62561679	      2.91283047	     46.71870327	   -119.47417338	   -216.73459695	    -25.92898214	      5.92068197	     -3.61679254	      3.88343727	     30.43700010	     26.96719272	     12.65143888	     -4.47841098	     -0.68465906	     12.19520470	    -30.43700010	    -26.96719272	    -12.65143888	     -0.37076706	      0.38144593	      0.11732679	   -727.40312257	   -679.58166624	    218.05464395	    -15.68669999	     16.49485019	     -0.83785173	    727.40312257	    679.58166624	   -218.05464395	    100.91921753	    -13.07859085	    295.80990762	      0.00000000	      0.00000000	      0.00000000	      0.00000000	      0.00000000	      0.00000000	      0.00000000	      0.00000000	      0.00000000	      0.00000000	      0.00000000	      0.00000000	      0.78975643	      0.00000000	    572.60715892	    370.39042117	      0.00000000	      0.00000000	      0.00000000	      0.00000000	      0.00000000	      0.00000000	      0.00000000	      0.00000000	      0.00000001	      0.00000000
      0.16505264	     11.40601638	      8.32749781	      8.95639298	      3.84526440	      4.47015498	      4.83650338	      0.00000000	    164.71100976	    147.35070981	    303.55699241	    129.36210218	      8.28776647	      5.96827542	      3.56672911	      3.63117312	      6.11968001	      5.01984781	      3.24566787	     98.88272800	      5.37689606	      8.17959130	      6.14662928	     27.51372823	     18.49105368	      5.28740796	      3.65047862	      6.23653095	     54.58828004	     31.04544395	     33.29326348	     45.09880960	      0.00000000	      0.00000000	      0.00000000	      0.00000000	      0.00000000	      0.00000000	     33.79379870	      2.27089573	      2.87035240	      0.00000000	     42.55551891	     10.91509021	     11.40601638	      8.32749781	      8.95639298	      3.84526440	      4.47015498	      4.83650338	      0.00000000	      6.17020930	     12.18180112	     10.52387645	      2.19404024	      8.28776647	      5.96827542	      3.56672911	      3.63117312	      6.11968001	      5.41598968	      3.24566787	      2.26486924	      5.37689606	      8.17959130	      6.14662928	     27.51372823	     18.49105368	      5.28740796	      3.65047862	      6.23653095	     16.96618031	      0.00000000	      0.00000000	      0.00000000	     21.15799931	      9.99399751	     50.68394294	     50.91801781	      5.43620851	      4.86417211	     13.20405016	      7.06224719	     18.14795260	      2.85900395	      8.80678962	      2.76702255	     36.19410766	     36.19410766	     13.44614699	     13.44614699	     30.81270886	     30.81270886	    120.61016917	    217.42865146	     27.38522875	    -16.25275035	      2.94963225	     47.15400152	   -120.61016917	   -217.42865146	    -27.38522875	      5.98471676	     -3.68902836	      3.93905969	     31.11874755	     26.66651041	     12.30290572	     -4.34520713	     -0.69914180	     12.46912433	    -31.11874755	    -26.66651041	    -12.30290572	     -0.37079784	      0.40043898	      0.10689095	   -733.11477245	   -676.48384086	    219.80223097	    -15.63043405	     16.64209321	     -0.82071687	    733.11477245	    676.48384086	   -219.80223097	    101.55912069	    -13.17623214	    298.08880318	      0.00000000	      0.00000000	      0.00000000	      0.00000000	      0.00000000	      0.00000000	      0.00000000	      0.00000000	      0.00000000	      0.00000000	      0.00000000	      0.00000000	      0.73773260	      0.00000000	    579.19612418	    373.52106701	      0.00000000	      0.00000000	      0.00000000	      0.00000000	      0.00000000	      0.00000000	      0.00000000	      0.00000000	      0.00000001	      0.00000000
